#!OML:ASF F:\VICON\USERDATA\INSTALL\rory3\rory3.ASF
:FULLY-SPECIFIED
:DEGREES
3113
root -10.3025 19.1853 -3.44513 -374.115 -69.4596 372.122
lowerback 3.43565 3.12208 -1.0303
upperback -1.98416 4.03353 -1.8408
thorax -3.90751 2.00177 -1.59264
lowerneck -15.0484 1.51043 -3.30495
upperneck -6.20383 2.28846 2.49472
head 0.487909 1.15231 1.46118
rclavicle 6.75433e-014 1.68967e-015
rhumerus 101.515 -22.0548 -68.1596
rradius 17.8494
rwrist -12.5348
rhand -43.6358 -14.004
rfingers 7.12502
rthumb -16.4706 -43.3248
lclavicle 6.75433e-014 1.68967e-015
lhumerus 92.2763 23.4325 54.0889
lradius 21.3418
lwrist 31.8016
lhand -6.70577 22.6141
lfingers 7.12502
lthumb 19.1538 51.691
rfemur -10.6872 14.5804 20.3122
rtibia 44.7587
rfoot -5.19339 -5.49234
rtoes -12.9225
lfemur 0.178905 -3.53074 -25.927
ltibia 32.3199
lfoot -2.6271 0.986686
ltoes -10.4662
3114
root -10.3379 19.1792 -3.44095 -374.017 -69.1639 372.156
lowerback 3.41142 3.05591 -1.0419
upperback -2.1492 3.93944 -1.87586
thorax -4.06502 1.95348 -1.62134
lowerneck -14.8083 1.49264 -3.22456
upperneck -6.3205 2.24763 2.37803
head 0.412895 1.12789 1.40216
rclavicle -3.10104e-014 9.79014e-015
rhumerus 101.225 -22.1941 -67.8009
rradius 17.8682
rwrist -12.2028
rhand -43.805 -14.932
rfingers 7.12502
rthumb -16.6335 -44.2393
lclavicle -3.10104e-014 9.79014e-015
lhumerus 92.4757 23.49 54.341
lradius 21.1551
lwrist 31.714
lhand -6.75066 22.7639
lfingers 7.12502
lthumb 19.1106 51.845
rfemur -10.5845 14.4757 20.2546
rtibia 44.6938
rfoot -5.47407 -5.45692
rtoes -12.7993
lfemur 0.183847 -3.56188 -25.9827
ltibia 32.2459
lfoot -3.24569 1.37168
ltoes -11.8252
3115
root -10.3743 19.1795 -3.43921 -374.115 -68.9392 372.376
lowerback 3.39789 3.04213 -1.08061
upperback -2.42172 3.90949 -1.93063
thorax -4.34001 1.9364 -1.66479
lowerneck -13.9325 1.46308 -3.14833
upperneck -6.62961 2.18359 2.28167
head 0.172795 1.0925 1.3383
rclavicle -4.70747e-014 -9.39258e-015
rhumerus 101.086 -22.1505 -68.0885
rradius 17.6613
rwrist -11.9287
rhand -43.1925 -14.5556
rfingers 7.12502
rthumb -16.0437 -43.9113
lclavicle -4.70747e-014 -9.39258e-015
lhumerus 92.8119 23.2408 55.0832
lradius 20.8315
lwrist 31.3636
lhand -6.94955 22.9872
lfingers 7.12502
lthumb 18.9193 52.0871
rfemur -10.4357 14.5188 20.1393
rtibia 44.5905
rfoot -5.72444 -5.38542
rtoes -12.4865
lfemur 0.188695 -3.54216 -26.0791
ltibia 32.171
lfoot -3.89103 1.61176
ltoes -12.9923
3116
root -10.408 19.1834 -3.43981 -374.317 -68.7572 372.652
lowerback 3.4754 3.12983 -1.13464
upperback -2.47026 4.01208 -2.10098
thorax -4.4245 1.98493 -1.82454
lowerneck -14.0167 1.37339 -2.79542
upperneck -6.73422 2.0136 2.14235
head 0.160954 0.997883 1.22549
rclavicle -4.08627e-014 2.44505e-014
rhumerus 101.478 -22.4015 -68.9784
rradius 17.3824
rwrist -11.4794
rhand -42.7451 -14.1386
rfingers 7.12502
rthumb -15.6128 -43.5285
lclavicle -4.08627e-014 2.44505e-014
lhumerus 93.9479 22.8443 56.489
lradius 20.3792
lwrist 30.742
lhand -7.01786 22.6218
lfingers 7.12502
lthumb 18.8536 51.7281
rfemur -10.2308 14.6963 20.0117
rtibia 44.4411
rfoot -5.95679 -5.37932
rtoes -11.7045
lfemur 0.200442 -3.42242 -26.173
ltibia 32.1148
lfoot -4.57881 1.56433
ltoes -13.4869
3117
root -10.4329 19.1896 -3.43407 -374.502 -68.2982 372.947
lowerback 3.57452 2.72114 -1.49944
upperback -2.44096 3.46585 -1.65366
thorax -4.51036 1.73306 -1.12615
lowerneck -14.441 1.55533 -4.01381
upperneck -6.72809 2.43199 2.31723
head 0.208065 1.23212 1.51824
rclavicle -5.38582e-015 -4.22417e-015
rhumerus 102.219 -21.4272 -68.9868
rradius 17.2861
rwrist -11.6463
rhand -42.8565 -13.9808
rfingers 7.12502
rthumb -15.7202 -43.3624
lclavicle -5.38582e-015 -4.22417e-015
lhumerus 94.3926 23.7655 58.2437
lradius 19.7955
lwrist 29.7791
lhand -7.09604 22.0758
lfingers 7.12502
lthumb 18.7784 51.1894
rfemur -10.085 14.4537 19.7727
rtibia 44.2401
rfoot -5.9665 -5.28675
rtoes -12.4223
lfemur 0.0751848 -3.43183 -26.3334
ltibia 32.0946
lfoot -5.19959 1.18215
ltoes -13.3697
3118
root -10.4554 19.1986 -3.4235 -374.422 -67.7415 372.965
lowerback 3.71002 2.12757 -1.80479
upperback -2.58595 2.67946 -1.0221
thorax -4.78704 1.36507 -0.255673
lowerneck -14.0068 1.87233 -5.52874
upperneck -7.12387 3.04141 2.49087
head -0.0338498 1.56865 1.85597
rclavicle 1.5704e-014 5.96354e-015
rhumerus 102.865 -19.7487 -69.0888
rradius 17.1749
rwrist -11.5006
rhand -42.9576 -13.3533
rfingers 7.12502
rthumb -15.8176 -42.7271
lclavicle 1.5704e-014 5.96354e-015
lhumerus 94.1046 25.0431 59.4986
lradius 19.3782
lwrist 29.1144
lhand -7.35196 22.2358
lfingers 7.12502
lthumb 18.5323 51.3731
rfemur -9.93489 13.8935 19.6064
rtibia 43.9791
rfoot -5.75171 -5.14575
rtoes -14.4346
lfemur -0.113426 -3.6098 -26.4366
ltibia 32.1227
lfoot -5.75178 0.71133
ltoes -13.6799
3119
root -10.4824 19.215 -3.41747 -373.971 -67.4665 372.6
lowerback 3.76985 2.3202 -1.51668
upperback -2.50742 2.93519 -1.41154
thorax -4.70665 1.47483 -0.838449
lowerneck -14.7446 1.68182 -4.40486
upperneck -7.14841 2.64721 2.1684
head 0.110625 1.34162 1.54774
rclavicle -7.98742e-014 5.96354e-016
rhumerus 103.068 -20.8013 -69.7593
rradius 17.108
rwrist -11.0211
rhand -42.7201 -13.3405
rfingers 7.12502
rthumb -15.5888 -42.7323
lclavicle -7.98742e-014 5.96354e-016
lhumerus 95.8648 24.1302 60.997
lradius 18.9755
lwrist 28.6004
lhand -7.71317 22.6072
lfingers 7.12502
lthumb 18.1848 51.7771
rfemur -9.76019 13.7868 19.6866
rtibia 43.6776
rfoot -5.59075 -5.14006
rtoes -14.75
lfemur -0.337465 -3.74866 -26.3393
ltibia 32.1834
lfoot -6.29095 0.571816
ltoes -15.4196
